<svg width="36" height="36" viewBox="0 0 36 36" fill="none" xmlns="http://www.w3.org/2000/svg">
<path d="M28.9821 8.34328C28.7543 8.22554 28.5325 8.09648 28.3177 7.95656C27.6928 7.54344 27.1198 7.05667 26.6112 6.50672C25.3385 5.05055 24.8632 3.57328 24.6881 2.53898H24.6952C24.5489 1.68047 24.6094 1.125 24.6185 1.125H18.822V23.5392C18.822 23.8402 18.822 24.1376 18.8093 24.4315C18.8093 24.468 18.8058 24.5018 18.8037 24.5412C18.8037 24.5573 18.8037 24.5742 18.8002 24.5911C18.8002 24.5953 18.8002 24.5995 18.8002 24.6037C18.7391 25.408 18.4813 26.1848 18.0494 26.866C17.6176 27.5472 17.025 28.1119 16.3238 28.5103C15.5929 28.9261 14.7663 29.1442 13.9254 29.1431C11.2247 29.1431 9.03586 26.9409 9.03586 24.2212C9.03586 21.5016 11.2247 19.2994 13.9254 19.2994C14.4366 19.2989 14.9447 19.3793 15.4308 19.5377L15.4378 13.6357C13.9622 13.4451 12.4631 13.5624 11.0351 13.9801C9.60709 14.3979 8.28115 15.107 7.14094 16.0629C6.14184 16.931 5.3019 17.9667 4.65891 19.1236C4.41422 19.5455 3.49102 21.2407 3.37922 23.992C3.30891 25.5537 3.77789 27.1716 4.00148 27.8402V27.8543C4.14211 28.248 4.68703 29.5917 5.57508 30.7244C6.29117 31.6331 7.1372 32.4313 8.08594 33.0933V33.0792L8.1 33.0933C10.9062 35.0002 14.0175 34.875 14.0175 34.875C14.5561 34.8532 16.3603 34.875 18.4092 33.904C20.6817 32.8275 21.9755 31.2237 21.9755 31.2237C22.802 30.2654 23.4592 29.1733 23.9189 27.9942C24.4434 26.6154 24.6185 24.9616 24.6185 24.3007V12.4095C24.6888 12.4516 25.6254 13.0711 25.6254 13.0711C25.6254 13.0711 26.9747 13.9359 29.0798 14.4991C30.5902 14.8999 32.625 14.9843 32.625 14.9843V9.22992C31.912 9.30727 30.4643 9.08226 28.9821 8.34328Z" fill="#0E0E0E"/>
</svg>
