<?xml version="1.0" encoding="utf-8"?>
<!-- Generator: Adobe Illustrator 24.0.1, SVG Export Plug-In . SVG Version: 6.00 Build 0)  -->
<svg version="1.1" id="Layer_1" xmlns="http://www.w3.org/2000/svg" xmlns:xlink="http://www.w3.org/1999/xlink" x="0px" y="0px"
	 viewBox="0 0 44 44" style="enable-background:new 0 0 44 44;" xml:space="preserve">
<style type="text/css">
	.st0{clip-path:url(#SVGID_2_);}
	.st1{fill:#0E0E0E;}
</style>
<g>
	<defs>
		<rect id="SVGID_1_" y="0" width="44" height="44"/>
	</defs>
	<clipPath id="SVGID_2_">
		<use xlink:href="#SVGID_1_"  style="overflow:visible;"/>
	</clipPath>
	<g class="st0">
		<path class="st1" d="M35.3,5.8H8.7C3.9,5.8,0,9.8,0,14.6v14.8c0,4.8,3.9,8.8,8.7,8.8h26.5c4.8,0,8.7-3.9,8.7-8.8V14.6
			C44,9.8,40.1,5.8,35.3,5.8z M42.2,29.4c0,3.8-3.1,7-7,7H8.7c-3.8,0-7-3.1-7-7V14.6c0-3.8,3.1-7,7-7h26.5c3.8,0,7,3.1,7,7V29.4z"/>
		<path class="st1" d="M30,21.7l-12.4-7.3c-0.3-0.2-0.6-0.2-0.9,0c-0.3,0.2-0.5,0.5-0.5,0.8v14.6c0,0.3,0.2,0.6,0.5,0.8
			c0.1,0.1,0.3,0.1,0.4,0.1c0.2,0,0.3,0,0.5-0.1L30,23.2c0.3-0.2,0.4-0.5,0.4-0.8S30.2,21.8,30,21.7z M18,28.2V16.7l9.8,5.7L18,28.2
			z"/>
	</g>
</g>
</svg>
