<svg id="Layer_1" data-name="Layer 1" xmlns="http://www.w3.org/2000/svg" viewBox="0 0 1198 600"><defs><style>.cls-1{fill:#0f0f0f;}</style></defs><title>soop logo new</title><path class="cls-1" d="M1082.24,246.46c-33.78,11.38-104-63.65-140.11-63.09-35.63.56-85.62,81-122.24,76.33-35.6-4.54-40.64-73.44-76-78C707,177,658.47,240.64,623.19,238.2c-21.31-1.48-40.94-53.75-56.44-52.48-14.62,1.19-22.75,51.8-36.87,52-16.3.22.06-59.25-11.82-62.1-13.86-3.34-56.18,20.1-65.18,14.1-28.1-18.74,44.75-31.68,55-39,21-15-22.73-66.23,13-66,24.63.15,56.9,59.59,86.42,61,27.44,1.3,55.88-67.22,82.86-68.18,23.24-1.66,100,83.68,117.72,79.18C828,151.6,760.59,61.44,778.63,55.54S867.91,122,889.15,118.41c18.07-3.08,25.05-87.77,49-87.16,26.33,1.77,8.44,86.05,32.4,95.3,23.61,9.12,141-39.36,156.4-26.48,17.8,14.9-100.37,53.18-102.08,68.09C1023.14,183.24,1113.3,236.91,1082.24,246.46Z"/><path class="cls-1" d="M405,383.65c-.94-47.21,20.68-89.19,65.36-102.12,26-8,63.14-8,91.33,0,48.29,12.74,80.3,54.3,79.08,102.17,1.24,47.86-30.8,89.44-79.08,102.16-28.19,7.92-65.37,8-91.33-.05C425.7,472.82,404.1,430.87,405,383.65Zm97.86-1.26c0,23.67-.15,42.24.36,55.69s1.24,23.57,2.56,30.33,2.92,11,5,12.63c18.52,12.33,25.49-25.72,28.32-42.48,2.08-12.9,3.72-30.37,3.82-52.41-.29-35.62-2.59-61.27-11.7-87.31-4.43-11.87-11.6-19.09-20.65-12.59-2.19,1.65-3.81,5.73-5,12.21s-1.89,16.32-2.39,29.5S502.84,359.29,502.88,382.39Z"/><path class="cls-1" d="M637.14,383.65c-.94-47.21,20.68-89.19,65.36-102.12,26-8,63.14-8,91.33,0,48.29,12.74,80.3,54.3,79.08,102.17,1.23,47.86-30.81,89.44-79.08,102.16-28.19,7.92-65.37,8-91.34-.05C657.82,472.82,636.22,430.87,637.14,383.65ZM735,382.39c0,23.67-.15,42.24.36,55.69s1.24,23.57,2.56,30.33,2.92,11,5,12.63c18.52,12.33,25.48-25.72,28.32-42.48,2.08-12.9,3.72-30.37,3.82-52.41-.3-35.62-2.59-61.27-11.7-87.31-4.43-11.87-11.6-19.09-20.65-12.59-2.19,1.65-3.82,5.73-5,12.21s-1.89,16.32-2.39,29.5S735,359.29,735,382.39Z"/><path class="cls-1" d="M870.21,560.19V288c0-5.45,5.95-9.86,13.27-9.86l34.56,0c5.87,0,11.21,2.85,13.18,7,1.23,2.63,2.47,5.25,3.71,7.88,3.7,7.91,18.47,9.56,24.23,2.7a81,81,0,0,1,9-9.11c17.45-15.69,53.69-15.29,81.43-6.66,46.42,13.84,85.12,53.85,87.62,102.1,5.24,48.37-28.92,89.09-76.69,103.14-27.38,8.52-66.34,9-85.81-5.81-8.58-6.75-24.8-2.7-25.09,6.42q-1.37,37.35-4.34,74.51c-.44,5.41-6.74,9.8-14,9.8H883.42C876.14,570.05,870.23,565.64,870.21,560.19Zm79.83-188q.33,11.49.5,23c1.42,23.31,6.29,68.34,26.74,70.73,25.14-3.68,28.84-62.48,27.22-85-1.13-28.2-5.64-48.91-11.91-62.21-9-17.95-16.33-26.42-26.51-14.3C953.13,322.42,950.48,348.19,950,372.22Z"/><path class="cls-1" d="M80.69,206.17c2.81-80.29,63.08-105.25,143.57-105.59h146c10.59,0,21.7,8.43,24.45,18.9a700.46,700.46,0,0,1,16.48,84c1.44,10.66-7,19.35-18.43,19.37l-58,.11c-10.16,0-19.31-6.81-21.78-16.12q-8.38-31.39-18.4-62.56c-5.56-17.1-23.73-29.32-40.88-27.17-13,1.94-27.25,8.8-35.36,16.93-3.93,4.22-6.58,6.3-8.34,12.61-5.45,19.11-.35,38.93,14.95,54.4,23.6,24.12,56.9,41.77,88.72,59.87,51.51,29.4,104.83,69,95.63,129.73-15.1,77.87-87,100.38-164.88,101H99.92a19.28,19.28,0,0,1-19.24-19.23q0-67.6,0-135.2c-.37-11.11,12.73-23,24.46-17.44.09,0,54.84,27.92,54.73,27.93,10.75,6.74,18.2,28.05,19.44,37.36q5.94,26.82,10.89,53.58c1,9.9,6.47,14.91,20.1,16,26.35,1,58.69,5.55,65.23-23.49,7.06-32.18-20.33-53.39-45.73-71.41-29.11-19.88-68.13-35.65-96.75-58.34C101.15,276.54,79.86,247.8,80.69,206.17Z"/></svg>