<svg width="38" height="38" viewBox="0 0 38 38" fill="none" xmlns="http://www.w3.org/2000/svg">
<g clip-path="url(#clip0_5_106)">
<path d="M38 10.487L38 27.5137C38 33.2958 33.2956 38 27.5134 38L10.4868 38C4.7044 38 0.000224862 33.2958 0.000224609 27.5137L0.000223865 10.487C0.000223612 4.7044 4.70462 0.000226523 10.4868 0.00022627L27.5134 0.000225526C33.2956 2.05636e-07 38 4.7044 38 10.487ZM10.4868 3.37153C6.56346 3.37153 3.37175 6.56346 3.37175 10.4868L3.37175 27.5137C3.37152 31.4368 6.56346 34.6285 10.4868 34.6285L27.5134 34.6285C31.4365 34.6285 34.6285 31.4368 34.6285 27.5137L34.6285 10.487C34.6285 6.56368 31.4365 3.37175 27.5134 3.37175L10.4868 3.37175L10.4868 3.37153Z" fill="#0E0E0E"/>
<path d="M28.7912 19.0002C28.7912 24.3993 24.3988 28.7917 18.9997 28.7917C13.6007 28.7917 9.20853 24.3993 9.20853 19.0002C9.20853 13.601 13.6007 9.20859 18.9997 9.20859C24.3988 9.20859 28.7912 13.601 28.7912 19.0002ZM12.5803 19.0002C12.5803 22.54 15.46 25.4202 18.9999 25.4202C22.54 25.4202 25.4199 22.5403 25.4199 19.0002C25.4199 15.4601 22.54 12.5801 18.9999 12.5801C15.46 12.5801 12.5803 15.4603 12.5803 19.0002Z" fill="#0E0E0E"/>
<path d="M31.6501 8.79781C31.6501 9.44739 31.3871 10.0855 30.9263 10.5443C30.4678 11.0053 29.8294 11.2703 29.1776 11.2703C28.5278 11.2703 27.8897 11.005 27.4289 10.5443C26.9704 10.0857 26.7052 9.44739 26.7052 8.79781C26.7052 8.14598 26.9704 7.50989 27.4289 7.04911C27.8897 6.58834 28.528 6.32536 29.1776 6.32536C29.8294 6.32536 30.4678 6.58834 30.9263 7.04911C31.3871 7.50764 31.6501 8.14598 31.6501 8.79781Z" fill="#0E0E0E"/>
</g>
<defs>
<clipPath id="clip0_5_106">
<rect width="38" height="38" fill="white" transform="matrix(-4.37114e-08 -1 -1 4.37114e-08 38 38)"/>
</clipPath>
</defs>
</svg>
