<svg width="31" height="31" viewBox="0 0 31 31" fill="none" xmlns="http://www.w3.org/2000/svg">
<path d="M5.12337 26.9628H25.911C28.6233 26.9628 30.8297 24.7565 30.8297 22.0442V8.92085C30.8297 6.20887 28.623 4.0022 25.911 4.0022H5.12337C2.41139 4.0022 0.205059 6.20887 0.205059 8.92085V22.0442C0.205059 24.7565 2.41139 26.9628 5.12337 26.9628ZM25.911 5.44053C27.8302 5.44053 29.3913 7.00171 29.3913 8.92085V22.0442C29.3913 23.9633 27.8302 25.5248 25.911 25.5248H5.12337C3.20423 25.5248 1.64305 23.9633 1.64305 22.0442V8.92085C1.64305 7.00171 3.20423 5.44053 5.12337 5.44053H25.911Z" fill="#0E0E0E"/>
<path d="M27.0717 8.98918C23.3954 12.5716 19.7191 16.1536 16.0427 19.736C15.3574 20.4037 14.3057 19.3542 14.992 18.6853C18.6683 15.1032 22.3446 11.5208 26.0209 7.93876C26.7062 7.2708 27.758 8.32054 27.0717 8.98918Z" fill="#0E0E0E"/>
<path d="M14.992 19.736C11.3157 16.1539 7.63936 12.5715 3.96304 8.98948C3.27705 8.32084 4.32816 7.27076 5.01381 7.93871C8.69012 11.5208 12.3664 15.1032 16.0428 18.6852C16.7287 19.3539 15.6776 20.4039 14.992 19.736Z" fill="#0E0E0E"/>
<path d="M4.00352 22.2718C6.44975 19.9518 8.89631 17.6322 11.3425 15.3122C12.0364 14.6545 13.0888 15.7032 12.3933 16.363C9.94708 18.683 7.50051 21.0026 5.05429 23.3226C4.36047 23.9803 3.30801 22.9313 4.00352 22.2718Z" fill="#0E0E0E"/>
<path d="M25.9141 23.3222C23.4679 21.0022 21.0213 18.6826 18.5751 16.3626C17.8799 15.7031 18.9317 14.6537 19.6258 15.3118C22.0721 17.6318 24.5186 19.9514 26.9648 22.2714C27.66 22.9309 26.6082 23.9806 25.9141 23.3222Z" fill="#0E0E0E"/>
</svg>
